# Blender v3.1.2 OBJ File: ''
# www.blender.org
o Cube
v 1.000000 -1.000000 -0.001000
v -1.000000 -1.000000 -0.001000
v 1.000000 -1.000000 0.001000
v -1.000000 -1.000000 0.001000
v 1.000000 1.000000 -0.001000
v -1.000000 1.000000 -0.001000
v 1.000000 1.000000 0.001000
v -1.000000 1.000000 0.001000
vt 0.875000 0.500000
vt 0.625000 0.750000
vt 0.625000 0.500000
vt 0.042636 -0.000336
vt 0.951163 0.733407
vt 0.951163 -0.000336
vt 0.625000 0.000000
vt 0.375000 0.250000
vt 0.375000 0.000000
vt 0.375000 0.500000
vt 0.125000 0.750000
vt 0.125000 0.500000
vt 0.375000 0.750000
vt 0.054637 0.727943
vt 0.945363 0.003454
vt 0.945276 0.728057
vt 0.875000 0.750000
vt 0.042636 0.733407
vt 0.625000 0.250000
vt 0.054724 0.003340
vn 1.0000 -0.0000 0.0000
vn 0.0000 0.0000 1.0000
vn 0.0000 1.0000 0.0000
vn -1.0000 0.0000 0.0000
vn -0.0000 -1.0000 0.0000
vn 0.0000 0.0000 -1.0000
s off
f 5/1/1 3/2/1 1/3/1
f 3/4/2 8/5/2 4/6/2
f 7/7/3 6/8/3 8/9/3
f 2/10/4 8/11/4 6/12/4
f 1/3/5 4/13/5 2/10/5
f 5/14/6 2/15/6 6/16/6
f 5/1/1 7/17/1 3/2/1
f 3/4/2 7/18/2 8/5/2
f 7/7/3 5/19/3 6/8/3
f 2/10/4 4/13/4 8/11/4
f 1/3/5 3/2/5 4/13/5
f 5/14/6 1/20/6 2/15/6
